<svg id="svg-source" height="0" version="1.1" 
  xmlns="http://www.w3.org/2000/svg" style="position:absolute; margin-left: -100%" 
  xmlns:xlink="http://www.w3.org/1999/xlink">
  <g id="piggy" data-iconmelon="Smallicons:a4c5eb726eada4f729431ff0222f000c">
    <path fill="#E7A793" d="M32 10.505c0-5.803-6.49-10.506-14.494-10.506-2.781 0-5.372.578-7.578 1.564-.048-.207-.12-.409-.253-.573h-4.387c-.404.502-.404 1.313 0 1.813l.914 1.134c-1.441 1.303-2.464 2.854-2.92 4.558l-1.216.327c-1.486.399-2.368 1.934-1.97 3.424l.721 2.7c.398 1.49 1.927 2.377 3.413 1.979l1.423-.383c1.032 1.062 2.322 1.982 3.814 2.705l-.402 1.816c-.27 1.217.385 2.482 1.459 2.83 1.074.348 2.162-.357 2.432-1.574l.388-1.752c1.319.285 2.715.441 4.161.441 1.812 0 3.535-.25 5.134-.688l.459 1.969c.284 1.213 1.373 1.932 2.432 1.607 1.06-.326 1.688-1.572 1.402-2.785l-.541-2.318c3.407-1.923 5.609-4.917 5.609-8.288z"></path>
    <path fill="#9B7063" d="M18.012 2.997c-2.505 0-5.009.855-5.009.855v1.139s2.502-.854 5.004-.854 5.009.816 5.009.816v-1.136s-2.502-.82-5.004-.82zm-10.004 4.986c-.556 0-1.007.446-1.007.998 0 .551.451.998 1.007.998.556 0 1.007-.447 1.007-.998 0-.552-.452-.998-1.007-.998z"></path>
  </g>
  <g id="hand" data-iconmelon="Smallicons:4fb675f8406072cb8ea8ec6811171e1e">
    <path fill="#E49C86" d="M14.995 25v5.002c0 1.104-.896 2-2 2h-8c-1.104 0-2-.896-2-2v-5.002h12z"></path>
    <path fill="#CD8C78" d="M2.995 29.692c.364.19.711.308 1.008.308h10.007c.29 0 .63-.095.985-.248v-3.752h-12v3.692z"></path>
    <path fill="#E7A793" d="M26.725 16.906s-1.592-2.196-6.355.109c-.661.41-1.553.943-2.39 1.464v-16.481c0-1.104-.866-1.998-1.977-1.998-1.108 0-2.008.895-2.008 1.998v11.015h-10.008v-8.003c0-1.103-.868-1.996-1.979-1.996-1.108 0-2.008.894-2.008 1.996v19.009c0 1.404 2.582 3.981 4.002 3.981h10.007c1.069 0 2.794-1.209 3.583-2.406.586-.635 3.233-3.311 8.412-5.922.944-.559 1.266-1.797.721-2.766z"></path>
    <path fill="#BA8776" d="M3.995 12.993h8l.014 7.963c0 1.135-.897 2.053-2.007 2.053s-2.007-.918-2.007-2.053c0 1.135-.898 2.053-2.007 2.053s-2.008-.918-2.008-2.053l.015-7.963z"></path>
    <path fill="#E9B09E" d="M10.992 10c-1.105 0-2.001.923-2.001 2.062 0-1.14-.896-2.062-2.001-2.062-1.106 0-2.001.923-2.001 2.062v6.876c0 1.14.895 2.062 2.001 2.062 1.104 0 2.002-.922 2.002-2.062 0 1.14.896 2.062 2.001 2.062 1.104 0 2.001-.922 2.001-2.062v-6.876c-.001-1.139-.896-2.062-2.002-2.062z"></path>
    <path fill="#EAC3B6" d="M10.995 17c-1.104 0-2 .896-2 2 0-1.104-.896-2-2-2s-2 .896-2 2v1c0 1.104.896 2 2 2s2-.896 2-2c0 1.104.896 2 2 2s2-.896 2-2v-1c0-1.104-.895-2-2-2z"></path>
  </g>
  <g id="label" data-iconmelon="Smallicons:457c816f5a403b4ae79defb6da0b0d79">
    <path fill-rule="evenodd" clip-rule="evenodd" fill="#26A6D1" d="M.801 18.141l13.11 13.058c1.06 1.056 2.776 1.056 3.835 0l12.893-12.728c1.355-1.351 1.355-4.315 1.355-4.952v-10.802c0-1.492-1.085-2.717-2.582-2.717l-11.427.016c-1.808 0-3.163.45-4.519 1.801l-12.665 12.504c-1.059 1.055-1.059 2.765 0 3.82z"></path>
    <path fill="#156E8D" d="M25.494 9.002c-1.379 0-2.5-1.121-2.5-2.5s1.121-2.5 2.5-2.5 2.5 1.122 2.5 2.5c0 1.379-1.121 2.5-2.5 2.5z"></path>
    <path fill-rule="evenodd" clip-rule="evenodd" fill="#93D3E8" d="M18.1 8.285c-.389-.388-1.017-.388-1.404 0l-8.419 8.418c-.388.388-.388 1.016 0 1.404.388.387 1.016.387 1.403 0l8.42-8.42c.386-.386.386-1.015 0-1.402zm2.805 2.806c-.388-.388-1.016-.388-1.403 0l-8.419 8.419c-.388.388-.388 1.016 0 1.404.388.387 1.016.387 1.403 0l8.419-8.42c.388-.388.388-1.016 0-1.403zm2.807 2.806c-.388-.387-1.016-.387-1.403 0l-8.42 8.419c-.387.387-.387 1.016 0 1.402.389.389 1.016.389 1.404 0l8.419-8.418c.388-.387.388-1.015 0-1.403z"></path>
    <path fill-rule="evenodd" clip-rule="evenodd" fill="#fff" d="M25.494 5.002c.828 0 1.5.671 1.5 1.5 0 .827-.672 1.5-1.5 1.5s-1.5-.672-1.5-1.5.672-1.5 1.5-1.5z"></path>
  </g>
</svg>